<svg width="24" height="24" viewBox="0 0 24 24" fill="none" xmlns="http://www.w3.org/2000/svg">
<g id="icon/back_arrow">
<path id="Vector" d="M2 12C2 17.5226 6.4774 22 12 22C17.5226 22 22 17.5226 22 12C22 6.4774 17.5226 2 12 2C6.4774 2 2 6.4774 2 12ZM12.2236 7.60769C12.2953 7.67884 12.3523 7.76342 12.3913 7.85661C12.4304 7.94979 12.4507 8.04975 12.4511 8.15079C12.4515 8.25182 12.432 8.35194 12.3937 8.44543C12.3554 8.53892 12.299 8.62396 12.2279 8.69567L9.7125 11.2308H16.1346C16.3386 11.2308 16.5343 11.3118 16.6785 11.4561C16.8228 11.6003 16.9038 11.796 16.9038 12C16.9038 12.204 16.8228 12.3997 16.6785 12.5439C16.5343 12.6882 16.3386 12.7692 16.1346 12.7692H9.7125L12.2279 15.3043C12.299 15.3761 12.3554 15.4612 12.3936 15.5548C12.4319 15.6483 12.4514 15.7485 12.4509 15.8496C12.4505 15.9506 12.4301 16.0506 12.391 16.1438C12.3519 16.237 12.2949 16.3216 12.2231 16.3928C12.1513 16.4639 12.0662 16.5203 11.9726 16.5585C11.8791 16.5968 11.7789 16.6163 11.6779 16.6158C11.5768 16.6154 11.4768 16.595 11.3836 16.5559C11.2904 16.5168 11.2058 16.4598 11.1346 16.388L7.31779 12.5418C7.17481 12.3977 7.09458 12.203 7.09458 12C7.09458 11.797 7.17481 11.6023 7.31779 11.4582L11.1346 7.61202C11.2058 7.54014 11.2904 7.48301 11.3837 7.44388C11.477 7.40476 11.577 7.38441 11.6782 7.38401C11.7793 7.38361 11.8796 7.40316 11.9732 7.44154C12.0667 7.47992 12.1518 7.53638 12.2236 7.60769Z" fill="white"/>
</g>
</svg>
