<svg width="24" height="24" viewBox="0 0 24 24" fill="none" xmlns="http://www.w3.org/2000/svg">
<g id="icon/baht">
<path id="vector" d="M14.701 11.3215C14.9524 11.0892 15.1531 10.8076 15.2906 10.4941C15.4281 10.1807 15.4994 9.84226 15.5 9.5V9C15.4992 8.3372 15.2356 7.70178 14.7669 7.23311C14.2982 6.76444 13.6628 6.50079 13 6.5H12.5V5H11.5V6.5H9V16.5H11.5V18H12.5V16.5H13.5C14.1628 16.4992 14.7982 16.2356 15.2669 15.7669C15.7356 15.2982 15.9992 14.6628 16 14V13.5C15.9984 13.0538 15.877 12.6163 15.6485 12.2331C15.42 11.8499 15.0927 11.535 14.701 11.3215ZM10 7.5H13C13.3977 7.5004 13.779 7.65856 14.0602 7.93978C14.3414 8.221 14.4996 8.6023 14.5 9V9.5C14.4996 9.8977 14.3414 10.279 14.0602 10.5602C13.779 10.8414 13.3977 10.9996 13 11H10V7.5ZM15 14C14.9996 14.3977 14.8414 14.779 14.5602 15.0602C14.279 15.3414 13.8977 15.4996 13.5 15.5H10V12H13.5C13.8977 12.0004 14.279 12.1586 14.5602 12.4398C14.8414 12.721 14.9996 13.1023 15 13.5V14Z" fill="black" stroke="black" stroke-width="0.5"/>
<circle id="vector_2" cx="12" cy="12" r="9" stroke="black" stroke-width="2"/>
</g>
</svg>
