<svg width="24" height="24" viewBox="0 0 24 24" fill="none" xmlns="http://www.w3.org/2000/svg">
<g id="icon/branch">
<path id="vector" d="M21.25 6.0025V2.8C21.25 2.3575 20.8925 2 20.45 2H3.55001C3.10751 2 2.75001 2.3575 2.75001 2.8V6.0025C2.33252 6.0275 2.00002 6.375 2.00002 6.8V10.0925C1.99841 10.6976 2.12094 11.2966 2.36002 11.8525C2.46752 12.1075 2.60002 12.3475 2.75001 12.575V21.2C2.75001 21.64 3.10751 22 3.55001 22H20.45C20.8925 22 21.25 21.6425 21.25 21.2V12.575C21.4024 12.3469 21.5329 12.105 21.64 11.8525C21.8775 11.295 22 10.7025 22 10.0925V6.8C22 6.375 21.6675 6.0275 21.25 6.0025ZM4.55001 3.8H19.45V6H4.55001V3.8ZM13.6 20.2025H10.4V17.6H13.6V20.2025ZM19.45 20.2025H15.2V16.8C15.2 16.3575 14.8425 16 14.4 16H9.60001C9.15751 16 8.80001 16.3575 8.80001 16.8V20.2025H4.55001V14.1475C4.62251 14.1825 4.69751 14.2175 4.77501 14.2475C5.33251 14.4825 5.92501 14.6 6.53501 14.6C7.14501 14.6 7.73501 14.4825 8.29501 14.2475C8.64001 14.1025 8.96501 13.9175 9.26251 13.695C9.26751 13.6925 9.27251 13.6925 9.27751 13.695C9.57593 13.9184 9.90091 14.104 10.245 14.2475C10.8025 14.4825 11.395 14.6 12.005 14.6C12.615 14.6 13.205 14.4825 13.765 14.2475C14.11 14.1025 14.435 13.9175 14.7325 13.695C14.7375 13.6925 14.7425 13.6925 14.7475 13.695C15.0459 13.9184 15.3709 14.104 15.715 14.2475C16.2725 14.4825 16.865 14.6 17.475 14.6C18.085 14.6 18.675 14.4825 19.235 14.2475C19.31 14.215 19.385 14.1825 19.46 14.1475V20.2025H19.45ZM20.2 10.0925C20.2 11.5875 18.975 12.8 17.4675 12.8C16.4475 12.8 15.5575 12.2475 15.0875 11.4275C15.015 11.3025 14.885 11.225 14.74 11.225H14.725C14.5825 11.225 14.45 11.3025 14.3775 11.4275C14.1377 11.8458 13.7913 12.1931 13.3737 12.4342C12.9562 12.6753 12.4822 12.8015 12 12.8C10.9825 12.8 10.095 12.25 9.62501 11.4325C9.55001 11.305 9.41501 11.225 9.26751 11.225C9.12001 11.225 8.98251 11.305 8.91001 11.4325C8.66876 11.8492 8.322 12.195 7.90462 12.435C7.48725 12.6751 7.014 12.801 6.53251 12.8C5.02501 12.8 3.80001 11.5875 3.80001 10.0925V7.8125C3.80001 7.805 3.80501 7.8 3.81251 7.8H20.1875C20.195 7.8 20.2 7.805 20.2 7.8125V10.0925Z" fill="black"/>
</g>
</svg>
