<svg width="24" height="24" viewBox="0 0 24 24" fill="none" xmlns="http://www.w3.org/2000/svg">
<g id="icon/chat">
<path id="Vector" d="M12 3.42857C7.26643 3.42857 3.42858 7.26643 3.42858 12C3.42858 13.5464 3.83715 14.995 4.55215 16.2464C4.59941 16.329 4.62969 16.4202 4.64122 16.5146C4.65275 16.6091 4.6453 16.7049 4.61929 16.7964L3.59144 20.41L7.20643 19.3814C7.29796 19.3554 7.39376 19.348 7.48821 19.3595C7.58266 19.371 7.67385 19.4013 7.75643 19.4486C9.04876 20.1867 10.5117 20.5738 12 20.5714C16.7343 20.5714 20.5714 16.7336 20.5714 12C20.5714 7.26643 16.7343 3.42857 12 3.42857ZM2.00001 12C2.00001 6.47714 6.47715 2 12 2C17.5229 2 22 6.47714 22 12C22 17.5229 17.5229 22 12 22C10.3086 22 8.71286 21.5793 7.31429 20.8364L3.36572 21.9593C3.18221 22.0113 2.98813 22.0134 2.80354 21.9653C2.61895 21.9173 2.45054 21.8208 2.3157 21.6859C2.18086 21.551 2.08448 21.3825 2.03652 21.1979C1.98856 21.0133 1.99075 20.8192 2.04286 20.6357L3.16572 16.6879C2.39833 15.2446 1.99798 13.6346 2.00001 12ZM7.71429 9.85714C7.71429 9.6677 7.78955 9.48602 7.9235 9.35206C8.05746 9.21811 8.23914 9.14285 8.42858 9.14285H15.5714C15.7609 9.14285 15.9426 9.21811 16.0765 9.35206C16.2105 9.48602 16.2857 9.6677 16.2857 9.85714C16.2857 10.0466 16.2105 10.2283 16.0765 10.3622C15.9426 10.4962 15.7609 10.5714 15.5714 10.5714H8.42858C8.23914 10.5714 8.05746 10.4962 7.9235 10.3622C7.78955 10.2283 7.71429 10.0466 7.71429 9.85714ZM8.42858 13.4286C8.23914 13.4286 8.05746 13.5038 7.9235 13.6378C7.78955 13.7717 7.71429 13.9534 7.71429 14.1429C7.71429 14.3323 7.78955 14.514 7.9235 14.6479C8.05746 14.7819 8.23914 14.8571 8.42858 14.8571H12.7143C12.9037 14.8571 13.0854 14.7819 13.2194 14.6479C13.3533 14.514 13.4286 14.3323 13.4286 14.1429C13.4286 13.9534 13.3533 13.7717 13.2194 13.6378C13.0854 13.5038 12.9037 13.4286 12.7143 13.4286H8.42858Z" fill="black"/>
</g>
</svg>
