<svg width="24" height="24" viewBox="0 0 24 24" fill="none" xmlns="http://www.w3.org/2000/svg">
<g id="icon/coupon_code">
<path id="vector" d="M14.7778 2L20.8889 2C21.1836 2 21.4662 2.10536 21.6746 2.29289C21.8829 2.48043 22 2.73478 22 3L22 21C22 21.2652 21.8829 21.5196 21.6746 21.7071C21.4662 21.8946 21.1836 22 20.8889 22L14.7778 22C14.7778 21.337 14.4851 20.7011 13.9642 20.2322C13.4432 19.7634 12.7367 19.5 12 19.5C11.2633 19.5 10.5567 19.7634 10.0358 20.2322C9.51488 20.7011 9.22222 21.337 9.22222 22L3.11111 22C2.81642 22 2.53381 21.8946 2.32543 21.7071C2.11706 21.5196 2 21.2652 2 21L2 3C2 2.73478 2.11706 2.48043 2.32544 2.29289C2.53381 2.10536 2.81643 2 3.11111 2L9.22222 2C9.22222 2.66304 9.51488 3.29893 10.0358 3.76777C10.5567 4.23661 11.2633 4.5 12 4.5C12.7367 4.5 13.4433 4.23661 13.9642 3.76777C14.4851 3.29893 14.7778 2.66304 14.7778 2ZM19.7778 14L19.7778 4L16.48 4C16.0663 4.75121 15.4277 5.38347 14.6362 5.8255C13.8446 6.26754 12.9316 6.50176 12 6.50176C11.0684 6.50176 10.1554 6.26754 9.36384 5.8255C8.57228 5.38347 7.93366 4.75121 7.52 4L4.22222 4L4.22222 14L19.7778 14ZM19.7778 16L4.22222 16L4.22222 20L7.52 20C7.93366 19.2488 8.57228 18.6165 9.36384 18.1745C10.1554 17.7325 11.0684 17.4982 12 17.4982C12.9316 17.4982 13.8446 17.7325 14.6362 18.1745C15.4277 18.6165 16.0663 19.2488 16.48 20L19.7778 20L19.7778 16Z" fill="black"/>
</g>
</svg>
