<svg width="auto" height="auto" viewBox="" fill="none" xmlns="http://www.w3.org/2000/svg">
<g id="icon/coupon">
<path id="vector" d="M54.1162 46.0141L54.1162 51.4446H23.3429L23.3429 46.0141L54.1162 46.0141ZM38.7296 12.5255L74.9335 48.7294C77.4451 51.241 77.4451 55.2687 74.9335 57.7803L65.8825 66.8313C64.6823 65.6311 63.0544 64.9568 61.357 64.9568C59.6596 64.9568 58.0318 65.6311 56.8315 66.8313C55.6313 68.0315 54.957 69.6594 54.957 71.3568C54.957 73.0542 55.6313 74.682 56.8315 75.8822L47.7806 84.9332C45.2689 87.4449 41.2412 87.4449 38.7296 84.9332L2.52572 48.7293C1.32548 47.5291 0.651202 45.9012 0.651203 44.2039C0.651201 42.5065 1.32548 40.8786 2.52572 39.6784L11.5767 30.6274C14.0883 33.1391 18.116 33.1391 20.6277 30.6274C21.8279 29.4272 22.5022 27.7993 22.5022 26.1019C22.5022 24.4045 21.8279 22.7767 20.6277 21.5764L29.6786 12.5255C30.8789 11.3253 32.5067 10.651 34.2041 10.651C35.9015 10.651 37.5294 11.3253 38.7296 12.5255ZM34.2041 17.051L28.4567 22.7983C29.0389 24.9662 29.0398 27.2492 28.4595 29.4175C27.8791 31.5859 26.7379 33.5632 25.1506 35.1504C23.5634 36.7376 21.5861 37.8789 19.4178 38.4592C17.2494 39.0396 14.9664 39.0387 12.7986 38.4565L7.0512 44.2039L43.2551 80.4077L49.0024 74.6604C48.4203 72.4925 48.4193 70.2095 48.9997 68.0412C49.5801 65.8728 50.7213 63.8955 52.3085 62.3083C53.8958 60.7211 55.873 59.5798 58.0414 58.9995C60.2098 58.4191 62.4927 58.42 64.6606 59.0022L70.408 53.2548L34.2041 17.051ZM42.1237 34.0215C44.0018 35.8996 44.0018 38.9317 42.1237 40.8098C40.2456 42.6878 37.2135 42.6878 35.3355 40.8098C33.4574 38.9317 33.4574 35.8996 35.3355 34.0215C37.2135 32.1435 40.2456 32.1435 42.1237 34.0215ZM42.1237 56.6489C44.0018 58.527 44.0018 61.5591 42.1237 63.4372C40.2456 65.3152 37.2136 65.3152 35.3355 63.4372C33.4574 61.5591 33.4574 58.527 35.3355 56.6489C37.2135 54.7709 40.2456 54.7709 42.1237 56.6489Z" fill="white"/>
</g>
</svg>
