<svg width="24" height="24" viewBox="0 0 24 24" fill="none" xmlns="http://www.w3.org/2000/svg">
<g id="icon/coupon">
<path id="vector" d="M2 9.22222L2 3.11111C2 2.81643 2.10536 2.53381 2.29289 2.32544C2.48043 2.11706 2.73478 2 3 2L21 2C21.2652 2 21.5196 2.11706 21.7071 2.32544C21.8946 2.53381 22 2.81643 22 3.11111V9.22222C21.337 9.22222 20.7011 9.51488 20.2322 10.0358C19.7634 10.5567 19.5 11.2633 19.5 12C19.5 12.7367 19.7634 13.4433 20.2322 13.9642C20.7011 14.4851 21.337 14.7778 22 14.7778V20.8889C22 21.1836 21.8946 21.4662 21.7071 21.6746C21.5196 21.8829 21.2652 22 21 22L3 22C2.73478 22 2.48043 21.8829 2.29289 21.6746C2.10536 21.4662 2 21.1836 2 20.8889L2 14.7778C2.66304 14.7778 3.29893 14.4851 3.76777 13.9642C4.23661 13.4433 4.5 12.7367 4.5 12C4.5 11.2633 4.23661 10.5567 3.76777 10.0358C3.29893 9.51488 2.66304 9.22222 2 9.22222ZM14 4.22222L4 4.22222L4 7.52C4.75121 7.93366 5.38347 8.57228 5.8255 9.36384C6.26754 10.1554 6.50176 11.0684 6.50176 12C6.50176 12.9316 6.26754 13.8446 5.8255 14.6362C5.38347 15.4277 4.75121 16.0663 4 16.48L4 19.7778L14 19.7778L14 4.22222ZM16 4.22222L16 19.7778H20V16.48C19.2488 16.0663 18.6165 15.4277 18.1745 14.6362C17.7325 13.8446 17.4982 12.9316 17.4982 12C17.4982 11.0684 17.7325 10.1554 18.1745 9.36384C18.6165 8.57228 19.2488 7.93366 20 7.52V4.22222L16 4.22222Z" fill="black"/>
</g>
</svg>
