<svg width="112" height="112" viewBox="0 0 112 112" fill="none" xmlns="http://www.w3.org/2000/svg">
<g id="icon/crm_acc">
<path id="vector" fill-rule="evenodd" clip-rule="evenodd" d="M74.6667 41.9999C74.6667 46.9506 72.7 51.6986 69.1993 55.1992C65.6987 58.6999 60.9507 60.6666 56 60.6666C51.0493 60.6666 46.3014 58.6999 42.8007 55.1992C39.3 51.6986 37.3333 46.9506 37.3333 41.9999C37.3333 37.0492 39.3 32.3013 42.8007 28.8006C46.3014 25.2999 51.0493 23.3333 56 23.3333C60.9507 23.3333 65.6987 25.2999 69.1993 28.8006C72.7 32.3013 74.6667 37.0492 74.6667 41.9999ZM65.3333 41.9999C65.3333 44.4753 64.35 46.8492 62.5997 48.5996C60.8493 50.3499 58.4754 51.3333 56 51.3333C53.5247 51.3333 51.1507 50.3499 49.4003 48.5996C47.65 46.8492 46.6667 44.4753 46.6667 41.9999C46.6667 39.5246 47.65 37.1506 49.4003 35.4003C51.1507 33.6499 53.5247 32.6666 56 32.6666C58.4754 32.6666 60.8493 33.6499 62.5997 35.4003C64.35 37.1506 65.3333 39.5246 65.3333 41.9999Z" fill="white"/>
<path id="vector_2" fill-rule="evenodd" clip-rule="evenodd" d="M56 9.33325C30.2273 9.33325 9.33334 30.2272 9.33334 55.9999C9.33334 81.7726 30.2273 102.667 56 102.667C81.7727 102.667 102.667 81.7726 102.667 55.9999C102.667 30.2272 81.7727 9.33325 56 9.33325ZM17.8182 55.9999C17.8182 64.8666 20.843 73.029 25.9127 79.5114C29.4731 74.8359 34.0663 71.0467 39.3334 68.44C44.6005 65.8333 50.3989 64.4797 56.2758 64.4848C62.0766 64.4793 67.8021 65.7979 73.0161 68.3402C78.2301 70.8825 82.795 74.5814 86.363 79.1551C90.0389 74.334 92.5139 68.7069 93.5832 62.7394C94.6525 56.7719 94.2855 50.6355 92.5124 44.838C90.7393 39.0405 87.6112 33.7486 83.3869 29.4001C79.1626 25.0515 73.9635 21.7714 68.2198 19.8312C62.4761 17.8909 56.353 17.3462 50.357 18.2422C44.361 19.1382 38.6646 21.4492 33.739 24.9838C28.8135 28.5184 24.8004 33.1751 22.0319 38.5686C19.2634 43.9621 17.819 49.9374 17.8182 55.9999ZM56 94.1817C47.2349 94.1949 38.7345 91.1796 31.937 85.646C34.673 81.7291 38.3148 78.5311 42.5523 76.324C46.7899 74.117 51.4979 72.9662 56.2758 72.9696C60.994 72.9658 65.6451 74.0878 69.8427 76.2423C74.0404 78.3968 77.6634 81.5217 80.4109 85.3575C73.5607 91.0708 64.9201 94.1942 56 94.1817Z" fill="white"/>
</g>
</svg>
