<svg width="24" height="24" viewBox="0 0 24 24" fill="none" xmlns="http://www.w3.org/2000/svg">
<g id="icon/cross">
<path id="vector" d="M19.6672 5.34414C19.2235 4.90046 18.5068 4.90046 18.0631 5.34414L12.5 10.8959L6.93686 5.33276C6.49317 4.88908 5.77645 4.88908 5.33276 5.33276C4.88908 5.77645 4.88908 6.49317 5.33276 6.93686L10.8959 12.5L5.33276 18.0631C4.88908 18.5068 4.88908 19.2235 5.33276 19.6672C5.77645 20.1109 6.49317 20.1109 6.93686 19.6672L12.5 14.1041L18.0631 19.6672C18.5068 20.1109 19.2235 20.1109 19.6672 19.6672C20.1109 19.2235 20.1109 18.5068 19.6672 18.0631L14.1041 12.5L19.6672 6.93686C20.0995 6.50455 20.0995 5.77645 19.6672 5.34414Z" fill="black"/>
</g>
</svg>
