<svg width="24" height="24" viewBox="0 0 24 24" fill="none" xmlns="http://www.w3.org/2000/svg">
<g id="icon/doc">
<path id="vector" d="M18.6504 9.14286H12.9594V3.42857H4.42276V20.5714H18.6504V9.14286ZM18.0614 7.71429L14.3821 4.02V7.71429H18.0614ZM3.71138 2H14.3821L20.0732 7.71429V21.2857C20.0732 21.4752 19.9982 21.6568 19.8648 21.7908C19.7314 21.9247 19.5505 22 19.3618 22H3.71138C3.52271 22 3.34177 21.9247 3.20836 21.7908C3.07495 21.6568 3 21.4752 3 21.2857V2.71429C3 2.52485 3.07495 2.34316 3.20836 2.20921C3.34177 2.07525 3.52271 2 3.71138 2ZM7.26829 12H15.8049V13.4286H7.26829V12ZM7.26829 7.71429H10.8252V9.14286H7.26829V7.71429ZM7.26829 16.2857H15.8049V17.7143H7.26829V16.2857Z" fill="black" stroke="black" stroke-width="0.5"/>
</g>
</svg>
