<svg width="auto" height="auto" viewBox="" fill="none" xmlns="http://www.w3.org/2000/svg">
    <g id="icon/gift">
        <path id="vector"
            d="M77.2 34.1701H57.524C59.3573 33.3682 61.06 32.3011 62.576 31.0036C63.6273 30.0785 64.4741 28.9485 65.0634 27.6843C65.6526 26.4202 65.9714 25.0492 66 23.6574C66.0453 22.115 65.7717 20.5796 65.196 19.1456C64.6202 17.7116 63.7545 16.409 62.6518 15.3179C61.5491 14.2268 60.2328 13.3701 58.7836 12.8004C57.3343 12.2307 55.7828 11.9599 54.224 12.0048C52.8174 12.033 51.4319 12.3486 50.1544 12.9316C48.8769 13.5147 47.7349 14.3526 46.8 15.3929C44.436 18.033 42.948 21.4725 42 24.7696C41.06 21.4725 39.572 18.0409 37.2 15.3929C36.2651 14.3526 35.1231 13.5147 33.8456 12.9316C32.5681 12.3486 31.1826 12.033 29.776 12.0048C28.2172 11.9599 26.6657 12.2307 25.2164 12.8004C23.7672 13.3701 22.4509 14.2268 21.3482 15.3179C20.2455 16.409 19.3798 17.7116 18.804 19.1456C18.2283 20.5796 17.9547 22.115 18 23.6574C18.0286 25.0492 18.3474 26.4202 18.9366 27.6843C19.5259 28.9485 20.3727 30.0785 21.424 31.0036C22.94 32.3011 24.6427 33.3682 26.476 34.1701H6.8C5.52696 34.1701 4.30606 34.6705 3.40589 35.5612C2.50571 36.452 2 37.6601 2 38.9198V51.5856C2 52.8453 2.50571 54.0534 3.40589 54.9442C4.30606 55.8349 5.52696 56.3353 6.8 56.3353H8.4V83.2503C8.4 84.51 8.90571 85.7181 9.80589 86.6088C10.7061 87.4996 11.927 88 13.2 88H70.8C72.073 88 73.2939 87.4996 74.1941 86.6088C75.0943 85.7181 75.6 84.51 75.6 83.2503V56.3353H77.2C78.473 56.3353 79.6939 55.8349 80.5941 54.9442C81.4943 54.0534 82 52.8453 82 51.5856V38.9198C82 37.6601 81.4943 36.452 80.5941 35.5612C79.6939 34.6705 78.473 34.1701 77.2 34.1701ZM49.2 17.4907C49.846 16.7761 50.6342 16.2012 51.5153 15.802C52.3963 15.4029 53.3512 15.1882 54.32 15.1713H54.564C55.6659 15.1724 56.7565 15.392 57.7712 15.8172C58.7859 16.2423 59.7043 16.8644 60.472 17.6466C61.2397 18.4288 61.8413 19.3552 62.2411 20.3713C62.641 21.3874 62.831 22.4724 62.8 23.5624C62.7827 24.521 62.5655 25.4658 62.1622 26.3376C61.7589 27.2093 61.178 27.9893 60.456 28.6287C55.62 32.8639 47.228 33.8574 43.656 34.0869C43.904 30.5801 44.904 22.2958 49.2 17.4907ZM21.2 23.5624C21.169 22.4724 21.359 21.3874 21.7589 20.3713C22.1587 19.3552 22.7603 18.4288 23.528 17.6466C24.2957 16.8644 25.2141 16.2423 26.2288 15.8172C27.2435 15.392 28.3341 15.1724 29.436 15.1713H29.68C30.6488 15.1882 31.6037 15.4029 32.4847 15.802C33.3658 16.2012 34.154 16.7761 34.8 17.4907C39.084 22.276 40.084 30.5801 40.316 34.1146C36.76 33.8851 28.368 32.8916 23.516 28.6564C22.7956 28.0114 22.218 27.2259 21.8194 26.3492C21.4208 25.4725 21.2099 24.5237 21.2 23.5624ZM5.2 51.5856V38.9198C5.2 38.4999 5.36857 38.0972 5.66863 37.8002C5.96869 37.5033 6.37565 37.3365 6.8 37.3365H40.4V53.1689H6.8C6.37565 53.1689 5.96869 53.0021 5.66863 52.7051C5.36857 52.4082 5.2 52.0055 5.2 51.5856ZM11.6 83.2503V56.3353H40.4V84.8335H13.2C12.7757 84.8335 12.3687 84.6667 12.0686 84.3698C11.7686 84.0729 11.6 83.6702 11.6 83.2503ZM72.4 83.2503C72.4 83.6702 72.2314 84.0729 71.9314 84.3698C71.6313 84.6667 71.2243 84.8335 70.8 84.8335H43.6V56.3353H72.4V83.2503ZM78.8 51.5856C78.8 52.0055 78.6314 52.4082 78.3314 52.7051C78.0313 53.0021 77.6243 53.1689 77.2 53.1689H43.6V37.3365H77.2C77.6243 37.3365 78.0313 37.5033 78.3314 37.8002C78.6314 38.0972 78.8 38.4999 78.8 38.9198V51.5856Z"
            fill="white" stroke="white" stroke-width="2" />
    </g>
</svg>