<svg width="40" height="40" viewBox="0 0 40 40" fill="none" xmlns="http://www.w3.org/2000/svg">
    <g id="icon/gift">
        <path id="vector"
            d="M34.6667 14.2375H26.4683C27.2322 13.9034 27.9416 13.4588 28.5733 12.9182C29.0114 12.5327 29.3642 12.0619 29.6097 11.5351C29.8552 11.0084 29.9881 10.4372 30 9.85724C30.0189 9.21457 29.9049 8.57485 29.665 7.97733C29.4251 7.37981 29.0643 6.83709 28.6049 6.38246C28.1455 5.92783 27.597 5.57087 26.9931 5.33349C26.3893 5.09611 25.7428 4.9833 25.0933 5.002C24.5072 5.01377 23.93 5.14524 23.3976 5.38817C22.8653 5.6311 22.3895 5.98025 22 6.41371C21.015 7.51373 20.395 8.94689 20 10.3207C19.6083 8.94689 18.9883 7.51703 18 6.41371C17.6105 5.98025 17.1346 5.6311 16.6023 5.38817C16.07 5.14524 15.4927 5.01377 14.9066 5.002C14.2572 4.9833 13.6107 5.09611 13.0068 5.33349C12.403 5.57087 11.8545 5.92783 11.3951 6.38246C10.9356 6.83709 10.5749 7.37981 10.335 7.97733C10.0951 8.57485 9.98109 9.21457 9.99998 9.85724C10.0119 10.4372 10.1447 11.0084 10.3902 11.5351C10.6358 12.0619 10.9886 12.5327 11.4266 12.9182C12.0583 13.4588 12.7678 13.9034 13.5316 14.2375H5.33331C4.80288 14.2375 4.29417 14.446 3.9191 14.8172C3.54403 15.1883 3.33331 15.6917 3.33331 16.2166V21.494C3.33331 22.0189 3.54403 22.5223 3.9191 22.8934C4.29417 23.2645 4.80288 23.4731 5.33331 23.4731H5.99998V34.6876C5.99998 35.2125 6.21069 35.7159 6.58577 36.087C6.96084 36.4582 7.46955 36.6667 7.99998 36.6667H32C32.5304 36.6667 33.0391 36.4582 33.4142 36.087C33.7893 35.7159 34 35.2125 34 34.6876V23.4731H34.6667C35.1971 23.4731 35.7058 23.2645 36.0809 22.8934C36.4559 22.5223 36.6666 22.0189 36.6666 21.494V16.2166C36.6666 15.6917 36.4559 15.1883 36.0809 14.8172C35.7058 14.446 35.1971 14.2375 34.6667 14.2375ZM23 7.28779C23.2692 6.99002 23.5976 6.75048 23.9647 6.58418C24.3318 6.41788 24.7296 6.3284 25.1333 6.32136H25.235C25.6941 6.32184 26.1485 6.41335 26.5713 6.5905C26.9941 6.76764 27.3768 7.02682 27.6966 7.35274C28.0165 7.67865 28.2672 8.06469 28.4338 8.48805C28.6004 8.91141 28.6796 9.36352 28.6666 9.81766C28.6594 10.2171 28.569 10.6108 28.4009 10.974C28.2328 11.3372 27.9908 11.6622 27.69 11.9286C25.675 13.6933 22.1783 14.1072 20.69 14.2029C20.7933 12.7417 21.21 9.28992 23 7.28779ZM11.3333 9.81766C11.3204 9.36352 11.3996 8.91141 11.5662 8.48805C11.7328 8.06469 11.9834 7.67865 12.3033 7.35274C12.6232 7.02682 13.0059 6.76764 13.4287 6.5905C13.8515 6.41335 14.3058 6.32184 14.765 6.32136H14.8666C15.2703 6.3284 15.6682 6.41788 16.0353 6.58418C16.4024 6.75048 16.7308 6.99002 17 7.28779C18.785 9.28167 19.2016 12.7417 19.2983 14.2144C17.8166 14.1188 14.32 13.7048 12.2983 11.9402C11.9982 11.6714 11.7575 11.3441 11.5914 10.9788C11.4253 10.6135 11.3375 10.2182 11.3333 9.81766ZM4.66665 21.494V16.2166C4.66665 16.0416 4.73688 15.8738 4.86191 15.7501C4.98693 15.6264 5.1565 15.5569 5.33331 15.5569H19.3333V22.1537H5.33331C5.1565 22.1537 4.98693 22.0842 4.86191 21.9605C4.73688 21.8368 4.66665 21.669 4.66665 21.494ZM7.33331 34.6876V23.4731H19.3333V35.3473H7.99998C7.82317 35.3473 7.6536 35.2778 7.52858 35.1541C7.40355 35.0304 7.33331 34.8626 7.33331 34.6876ZM32.6666 34.6876C32.6666 34.8626 32.5964 35.0304 32.4714 35.1541C32.3464 35.2778 32.1768 35.3473 32 35.3473H20.6666V23.4731H32.6666V34.6876ZM35.3333 21.494C35.3333 21.669 35.2631 21.8368 35.1381 21.9605C35.013 22.0842 34.8435 22.1537 34.6667 22.1537H20.6666V15.5569H34.6667C34.8435 15.5569 35.013 15.6264 35.1381 15.7501C35.2631 15.8738 35.3333 16.0416 35.3333 16.2166V21.494Z"
            fill="white" stroke="white" stroke-width="0.8" />
    </g>
</svg>