<svg width="24" height="24" viewBox="0 0 24 24" fill="none" xmlns="http://www.w3.org/2000/svg">
<g id="icon/language_eng_th">
<path id="vector" d="M20.0645 3H9.74194V6.26461H11.0323V4.30584H20.0645C20.4516 4.30584 20.7097 4.56701 20.7097 4.95876V12.1409C20.7097 12.5326 20.4516 12.7938 20.0645 12.7938H11.6774V17.3643H8.25806L5.87097 19.2577V17.3643H3.93548C3.54839 17.3643 3.29032 17.1031 3.29032 16.7113V9.52921C3.29032 9.13746 3.54839 8.87629 3.93548 8.87629H12.3226V7.57045H3.93548C2.83871 7.57045 2 8.41924 2 9.52921V16.7113C2 17.8213 2.83871 18.6701 3.93548 18.6701H4.58065V22L8.64516 18.6701H12.9677V14.0997H20.0645C21.1613 14.0997 22 13.2509 22 12.1409V4.95876C22 3.8488 21.1613 3 20.0645 3Z" fill="#A3A3A3"/>
<path id="&#224;&#184;&#129;" d="M14.1031 11.312V9.52586C14.1031 9.07666 14.1889 8.73085 14.3607 8.48842C14.5325 8.246 14.7764 8.07488 15.0925 7.97506L15.1028 7.93227L14 7.51516V7.23709C14 6.88771 14.0996 6.56686 14.2989 6.27452C14.4981 5.98219 14.7902 5.75046 15.1749 5.57933C15.5666 5.40108 16.0407 5.31195 16.5972 5.31195C17.1194 5.31195 17.5694 5.39752 17.9473 5.56864C18.3252 5.73263 18.6172 5.98219 18.8234 6.3173C19.0364 6.64529 19.1429 7.0624 19.1429 7.56864V11.312H17.5969V7.6649C17.5969 7.30839 17.5042 7.04101 17.3186 6.86276C17.14 6.6845 16.8858 6.59538 16.556 6.59538C16.2399 6.59538 16.0029 6.66668 15.8448 6.80928C15.6868 6.94475 15.6009 7.11231 15.5872 7.31195L16.5044 7.75046L16.3911 8.44564C16.1437 8.4599 15.9582 8.5526 15.8345 8.72372C15.7109 8.89484 15.649 9.12657 15.649 9.41891V11.312H14.1031Z" fill="#A3A3A3"/>
<path id="vector_2" d="M5 16H6.58242L6.97802 14.9213H9.02198L9.41758 16H11L8.75824 10H7.17582L5 16ZM7.96703 11.6854L8.62637 13.7753H7.30769L7.96703 11.6854Z" fill="#A3A3A3"/>
</g>
</svg>
