<svg width="auto" height="auto" viewBox="" fill="none" xmlns="http://www.w3.org/2000/svg">
    <g id="icon/list">
        <g id="vector">
            <path
                d="M11.9104 29.4541C12.3646 29.4541 12.7444 29.3006 13.05 28.9937C13.3555 28.6853 13.5083 28.3034 13.5083 27.8478C13.5083 27.3923 13.3555 27.0124 13.05 26.7083C12.7416 26.4027 12.3597 26.2499 11.9041 26.2499C11.4486 26.2499 11.068 26.4041 10.7625 26.7124C10.4569 27.0194 10.3041 27.4006 10.3041 27.8562C10.3041 28.3103 10.4583 28.6902 10.7666 28.9958C11.0736 29.3013 11.4548 29.4541 11.9104 29.4541ZM11.9104 21.602C12.3646 21.602 12.7444 21.4485 13.05 21.1416C13.3555 20.8333 13.5083 20.4513 13.5083 19.9958C13.5083 19.5402 13.3555 19.1603 13.05 18.8562C12.7416 18.5506 12.3597 18.3978 11.9041 18.3978C11.4486 18.3978 11.068 18.5513 10.7625 18.8583C10.4569 19.1666 10.3041 19.5485 10.3041 20.0041C10.3041 20.4596 10.4583 20.8395 10.7666 21.1437C11.0736 21.4492 11.4548 21.602 11.9104 21.602ZM11.9104 13.7499C12.3646 13.7499 12.7444 13.5958 13.05 13.2874C13.3555 12.9805 13.5083 12.5992 13.5083 12.1437C13.5083 11.6895 13.3555 11.3096 13.05 11.0041C12.7416 10.6985 12.3597 10.5458 11.9041 10.5458C11.4486 10.5458 11.068 10.6992 10.7625 11.0062C10.4569 11.3145 10.3041 11.6964 10.3041 12.152C10.3041 12.6076 10.4583 12.9874 10.7666 13.2916C11.0736 13.5971 11.4548 13.7499 11.9104 13.7499ZM18.3166 28.8958H29.5354V26.8124H18.3166V28.8958ZM18.3166 21.0416H29.5354V18.9583H18.3166V21.0416ZM18.3166 13.1874H29.5354V11.1041H18.3166V13.1874ZM6.6979 36.6666C5.73956 36.6666 4.93956 36.3458 4.2979 35.7041C3.65484 35.061 3.33331 34.2603 3.33331 33.302V6.69783C3.33331 5.7395 3.65484 4.9395 4.2979 4.29783C4.93956 3.65478 5.73956 3.33325 6.6979 3.33325H33.3021C34.2604 3.33325 35.0604 3.65478 35.7021 4.29783C36.3451 4.9395 36.6666 5.7395 36.6666 6.69783V33.302C36.6666 34.2603 36.3458 35.0603 35.7041 35.702C35.0611 36.3451 34.2604 36.6666 33.3021 36.6666H6.6979ZM6.6979 34.5833H33.3021C33.6215 34.5833 33.9153 34.4499 34.1833 34.1833C34.45 33.9152 34.5833 33.6214 34.5833 33.302V6.69783C34.5833 6.37839 34.45 6.08464 34.1833 5.81659C33.9153 5.54992 33.6215 5.41659 33.3021 5.41659H6.6979C6.37845 5.41659 6.0847 5.54992 5.81665 5.81659C5.54998 6.08464 5.41665 6.37839 5.41665 6.69783V33.302C5.41665 33.6214 5.54998 33.9152 5.81665 34.1833C6.0847 34.4499 6.37845 34.5833 6.6979 34.5833Z"
                fill="#ffffff" />
            <path
                d="M5.41665 5.41659V34.5833M11.9104 29.4541C12.3646 29.4541 12.7444 29.3006 13.05 28.9937C13.3555 28.6853 13.5083 28.3034 13.5083 27.8478C13.5083 27.3923 13.3555 27.0124 13.05 26.7083C12.7416 26.4027 12.3597 26.2499 11.9041 26.2499C11.4486 26.2499 11.068 26.4041 10.7625 26.7124C10.4569 27.0194 10.3041 27.4006 10.3041 27.8562C10.3041 28.3103 10.4583 28.6902 10.7666 28.9958C11.0736 29.3013 11.4548 29.4541 11.9104 29.4541ZM11.9104 21.602C12.3646 21.602 12.7444 21.4485 13.05 21.1416C13.3555 20.8333 13.5083 20.4513 13.5083 19.9958C13.5083 19.5402 13.3555 19.1603 13.05 18.8562C12.7416 18.5506 12.3597 18.3978 11.9041 18.3978C11.4486 18.3978 11.068 18.5513 10.7625 18.8583C10.4569 19.1666 10.3041 19.5485 10.3041 20.0041C10.3041 20.4596 10.4583 20.8395 10.7666 21.1437C11.0736 21.4492 11.4548 21.602 11.9104 21.602ZM11.9104 13.7499C12.3646 13.7499 12.7444 13.5958 13.05 13.2874C13.3555 12.9805 13.5083 12.5992 13.5083 12.1437C13.5083 11.6895 13.3555 11.3096 13.05 11.0041C12.7416 10.6985 12.3597 10.5458 11.9041 10.5458C11.4486 10.5458 11.068 10.6992 10.7625 11.0062C10.4569 11.3145 10.3041 11.6964 10.3041 12.152C10.3041 12.6076 10.4583 12.9874 10.7666 13.2916C11.0736 13.5971 11.4548 13.7499 11.9104 13.7499ZM18.3166 28.8958H29.5354V26.8124H18.3166V28.8958ZM18.3166 21.0416H29.5354V18.9583H18.3166V21.0416ZM18.3166 13.1874H29.5354V11.1041H18.3166V13.1874ZM6.6979 36.6666C5.73956 36.6666 4.93956 36.3458 4.2979 35.7041C3.65484 35.061 3.33331 34.2603 3.33331 33.302V6.69784C3.33331 5.7395 3.65484 4.9395 4.2979 4.29783C4.93956 3.65478 5.73956 3.33325 6.6979 3.33325H33.3021C34.2604 3.33325 35.0604 3.65478 35.7021 4.29783C36.3451 4.9395 36.6666 5.7395 36.6666 6.69784V33.302C36.6666 34.2603 36.3458 35.0603 35.7041 35.702C35.0611 36.3451 34.2604 36.6666 33.3021 36.6666H6.6979ZM6.6979 34.5833H33.3021C33.6215 34.5833 33.9153 34.4499 34.1833 34.1833C34.45 33.9152 34.5833 33.6214 34.5833 33.302V6.69784C34.5833 6.37839 34.45 6.08464 34.1833 5.81659C33.9153 5.54992 33.6215 5.41659 33.3021 5.41659H6.6979C6.37845 5.41659 6.0847 5.54992 5.81665 5.81659C5.54998 6.08464 5.41665 6.37839 5.41665 6.69784V33.302C5.41665 33.6214 5.54998 33.9152 5.81665 34.1833C6.0847 34.4499 6.37845 34.5833 6.6979 34.5833Z"
                stroke="#ffffff" stroke-width="0.3" />
        </g>
    </g>
</svg>