<svg width="24" height="24" viewBox="0 0 24 24" fill="none" xmlns="http://www.w3.org/2000/svg">
<g id="icon/personal_setting">
<path id="vector" d="M14.8571 6.28571C14.8571 7.42236 14.4056 8.51244 13.6019 9.31617C12.7982 10.1199 11.7081 10.5714 10.5714 10.5714C9.43479 10.5714 8.3447 10.1199 7.54097 9.31617C6.73724 8.51244 6.28571 7.42236 6.28571 6.28571C6.28571 5.14907 6.73724 4.05898 7.54097 3.25526C8.3447 2.45153 9.43479 2 10.5714 2C11.7081 2 12.7982 2.45153 13.6019 3.25526C14.4056 4.05898 14.8571 5.14907 14.8571 6.28571ZM10.5714 9.14286C11.3292 9.14286 12.0559 8.84184 12.5917 8.30602C13.1276 7.7702 13.4286 7.04348 13.4286 6.28571C13.4286 5.52795 13.1276 4.80123 12.5917 4.26541C12.0559 3.72959 11.3292 3.42857 10.5714 3.42857C9.81367 3.42857 9.08694 3.72959 8.55112 4.26541C8.0153 4.80123 7.71429 5.52795 7.71429 6.28571C7.71429 7.04348 8.0153 7.7702 8.55112 8.30602C9.08694 8.84184 9.81367 9.14286 10.5714 9.14286ZM10.9371 19.1429C10.7733 18.6789 10.6635 18.1977 10.61 17.7086H3.42857C3.43 17.3571 3.64857 16.3 4.61714 15.3314C5.54857 14.4 7.30143 13.4286 10.5714 13.4286C10.9429 13.4286 11.2957 13.4414 11.6286 13.4643C11.9514 12.9771 12.3371 12.5357 12.7771 12.1529C12.11 12.0543 11.3771 12 10.5714 12C3.42857 12 2 16.2857 2 17.7143C2 19.1429 3.42857 19.1429 3.42857 19.1429H10.9371ZM16.1229 12.6571C16.38 11.7814 17.62 11.7814 17.8786 12.6571L17.94 12.8686C17.9784 12.9997 18.0456 13.1206 18.1369 13.2223C18.2281 13.324 18.341 13.404 18.4672 13.4564C18.5934 13.5087 18.7298 13.5321 18.8662 13.5248C19.0027 13.5176 19.1358 13.4798 19.2557 13.4143L19.45 13.3086C20.2514 12.8714 21.1286 13.7486 20.6929 14.55L20.5857 14.7443C20.5205 14.8642 20.4829 14.9971 20.4758 15.1334C20.4686 15.2697 20.4921 15.4058 20.5444 15.5319C20.5968 15.6579 20.6766 15.7706 20.7782 15.8618C20.8798 15.9529 21.0005 16.0202 21.1314 16.0586L21.3443 16.1229C22.2186 16.38 22.2186 17.62 21.3443 17.8786L21.13 17.94C20.9991 17.9787 20.8785 18.0462 20.7771 18.1376C20.6757 18.229 20.5961 18.3419 20.544 18.4681C20.4919 18.5942 20.4688 18.7305 20.4763 18.8668C20.4837 19.0031 20.5216 19.136 20.5871 19.2557L20.6929 19.45C21.1286 20.2514 20.2514 21.1286 19.45 20.6929L19.2557 20.5857C19.1358 20.5205 19.0029 20.4829 18.8666 20.4758C18.7303 20.4686 18.5942 20.4921 18.4681 20.5444C18.3421 20.5968 18.2294 20.6766 18.1382 20.7782C18.0471 20.8798 17.9798 21.0005 17.9414 21.1314L17.8771 21.3443C17.62 22.2186 16.38 22.2186 16.1214 21.3443L16.06 21.13C16.0213 20.9991 15.9538 20.8785 15.8624 20.7771C15.771 20.6757 15.6581 20.5961 15.5319 20.544C15.4057 20.4919 15.2695 20.4688 15.1332 20.4763C14.9969 20.4837 14.864 20.5216 14.7443 20.5871L14.55 20.6929C13.7486 21.1286 12.8714 20.2514 13.3071 19.45L13.4143 19.2557C13.4795 19.1358 13.5171 19.0029 13.5242 18.8666C13.5314 18.7303 13.5079 18.5942 13.4556 18.4681C13.4032 18.3421 13.3234 18.2294 13.2218 18.1382C13.1202 18.0471 12.9995 17.9798 12.8686 17.9414L12.6571 17.8771C11.7814 17.62 11.7814 16.38 12.6571 16.1214L12.8686 16.06C12.9997 16.0216 13.1206 15.9544 13.2223 15.8631C13.324 15.7719 13.404 15.659 13.4564 15.5328C13.5087 15.4066 13.5321 15.2702 13.5248 15.1337C13.5176 14.9973 13.4798 14.8642 13.4143 14.7443L13.3086 14.55C12.8714 13.7486 13.7486 12.8714 14.55 13.3071L14.7443 13.4143C14.8642 13.4795 14.9971 13.5171 15.1334 13.5242C15.2697 13.5314 15.4058 13.5079 15.5319 13.4556C15.6579 13.4032 15.7706 13.3234 15.8618 13.2218C15.9529 13.1202 16.0202 12.9995 16.0586 12.8686L16.1229 12.6571ZM19.1429 17C19.1429 16.7186 19.0874 16.4399 18.9797 16.18C18.8721 15.92 18.7142 15.6838 18.5152 15.4848C18.3162 15.2858 18.08 15.1279 17.82 15.0203C17.5601 14.9126 17.2814 14.8571 17 14.8571C16.7186 14.8571 16.4399 14.9126 16.18 15.0203C15.92 15.1279 15.6838 15.2858 15.4848 15.4848C15.2858 15.6838 15.1279 15.92 15.0203 16.18C14.9126 16.4399 14.8571 16.7186 14.8571 17C14.8571 17.5683 15.0829 18.1134 15.4848 18.5152C15.8866 18.9171 16.4317 19.1429 17 19.1429C17.5683 19.1429 18.1134 18.9171 18.5152 18.5152C18.9171 18.1134 19.1429 17.5683 19.1429 17Z" fill="black"/>
</g>
</svg>
