<svg width="24" height="24" viewBox="" fill="none" xmlns="http://www.w3.org/2000/svg">
    <g id="icon/point">
        <circle id="vector" cx="12" cy="12" r="10" stroke="#000000" stroke-width="1.5" />
        <path id="vector_2"
            d="M11.1508 6.36587C11.542 5.73656 12.458 5.73656 12.8492 6.36587L14.1306 8.42669C14.2682 8.64811 14.4869 8.807 14.74 8.86951L17.0959 9.45129C17.8154 9.62895 18.0984 10.5 17.6208 11.0666L16.0568 12.9221C15.8888 13.1214 15.8052 13.3785 15.824 13.6386L15.9987 16.0589C16.0521 16.798 15.3111 17.3364 14.6246 17.0573L12.3767 16.1432C12.1352 16.045 11.8648 16.045 11.6233 16.1432L9.37539 17.0573C8.68894 17.3364 7.94795 16.798 8.0013 16.0589L8.17601 13.6386C8.19478 13.3785 8.11124 13.1214 7.9432 12.9221L6.3792 11.0666C5.9016 10.5 6.18463 9.62895 6.90406 9.45129L9.25996 8.86951C9.51308 8.807 9.73178 8.64811 9.86945 8.42669L11.1508 6.36587Z"
            stroke="#000000" stroke-width="1.5" />
    </g>
</svg>