<svg width="32" height="32" viewBox="0 0 32 32" fill="none" xmlns="http://www.w3.org/2000/svg">
    <g id="icon/total_point">
        <path id="vector"
            d="M28.2542 21.8602C27.9235 21.6085 27.5386 21.4356 27.1293 21.355C26.7201 21.2744 26.2976 21.2882 25.8946 21.3953L21.2466 22.4525C21.3547 22.0006 21.3581 21.5304 21.2564 21.077C21.1547 20.6237 20.9505 20.199 20.6593 19.8348C20.3681 19.4706 19.9973 19.1763 19.5747 18.9741C19.1522 18.7718 18.6888 18.6667 18.2194 18.6668H12.6582C12.1911 18.6656 11.7285 18.756 11.297 18.9327C10.8655 19.1095 10.4737 19.369 10.1442 19.6964L7.63132 22.1832H4.44412C3.97271 22.1832 3.52061 22.3685 3.18728 22.6982C2.85394 23.028 2.66667 23.4752 2.66667 23.9415L2.66667 28.3371C2.66667 28.8034 2.85394 29.2506 3.18728 29.5803C3.52061 29.9101 3.97271 30.0953 4.44412 30.0953H15.9976C16.0702 30.0954 16.1426 30.0865 16.2131 30.0689L23.3229 28.3107C23.3682 28.3 23.4125 28.2853 23.4551 28.2668L27.7732 26.4492L27.8221 26.4272C28.2371 26.2221 28.5924 25.9158 28.8547 25.5373C29.117 25.1587 29.2775 24.7204 29.3212 24.2635C29.3649 23.8066 29.2903 23.3463 29.1044 22.9258C28.9185 22.5053 28.6274 22.1386 28.2586 21.8602H28.2542ZM4.44412 23.9415H7.1103V28.3371H4.44412V23.9415ZM27.0433 24.8437L22.8219 26.6217L15.8865 28.3371H8.88775V23.4261L11.4017 20.9404C11.5662 20.7764 11.762 20.6464 11.9777 20.5579C12.1933 20.4694 12.4247 20.4243 12.6582 20.425H18.2194C18.5729 20.425 18.912 20.5639 19.162 20.8112C19.412 21.0585 19.5525 21.3939 19.5525 21.7437C19.5525 22.0934 19.412 22.4288 19.162 22.6761C18.912 22.9234 18.5729 23.0624 18.2194 23.0624H15.1088C14.8731 23.0624 14.6471 23.155 14.4804 23.3198C14.3137 23.4847 14.2201 23.7083 14.2201 23.9415C14.2201 24.1746 14.3137 24.3982 14.4804 24.5631C14.6471 24.728 14.8731 24.8206 15.1088 24.8206H18.6637C18.7306 24.8204 18.7973 24.813 18.8626 24.7986L26.3057 23.1052L26.3401 23.0964C26.5673 23.034 26.8098 23.057 27.021 23.1608C27.2321 23.2646 27.397 23.4421 27.4839 23.6589C27.5707 23.8758 27.5735 24.1167 27.4915 24.3355C27.4096 24.5542 27.2487 24.7352 27.04 24.8437H27.0433Z"
            fill="black" />
        <circle id="vector_2" cx="16" cy="9.33341" r="6.66667" stroke="black" stroke-width="2" />
        <path id="vector_3"
            d="M15.1508 6.69913C15.542 6.06981 16.458 6.06981 16.8492 6.69913L17.1254 7.14336C17.2631 7.36478 17.4818 7.52367 17.7349 7.58618L18.2428 7.71159C18.9622 7.88925 19.2452 8.76034 18.7676 9.32693L18.4305 9.72689C18.2625 9.92625 18.1789 10.1833 18.1977 10.4434L18.2353 10.9651C18.2887 11.7042 17.5477 12.2426 16.8613 11.9635L16.3767 11.7664C16.1352 11.6682 15.8648 11.6682 15.6233 11.7664L15.1387 11.9635C14.4523 12.2426 13.7113 11.7042 13.7647 10.9651L13.8023 10.4434C13.8211 10.1833 13.7375 9.92625 13.5695 9.72689L13.2324 9.32693C12.7548 8.76034 13.0378 7.88925 13.7572 7.71159L14.2651 7.58618C14.5182 7.52367 14.7369 7.36478 14.8746 7.14336L15.1508 6.69913Z"
            stroke="black" stroke-width="1.5" />
    </g>
</svg>