<svg width="19" height="18" viewBox="0 0 19 18" fill="none" xmlns="http://www.w3.org/2000/svg">
<g id="vector">
<path id="vector_2" d="M14.1982 4.58421L7.14615 1.08156C6.96606 0.992101 6.76392 0.975666 6.57424 1.03506C6.38456 1.09446 6.21912 1.22601 6.10618 1.40724L4.12695 4.58421" stroke="black" stroke-width="2" stroke-linecap="round"/>
<path id="vector_3" d="M17.575 4.58447H1.425C1.31228 4.58447 1.20418 4.63478 1.12448 4.72434C1.04478 4.81389 1 4.93535 1 5.062V16.5226C1 16.6492 1.04478 16.7707 1.12448 16.8603C1.20418 16.9498 1.31228 17.0001 1.425 17.0001H17.575C17.6877 17.0001 17.7958 16.9498 17.8755 16.8603C17.9552 16.7707 18 16.6492 18 16.5226V5.062C18 4.93535 17.9552 4.81389 17.8755 4.72434C17.7958 4.63478 17.6877 4.58447 17.575 4.58447Z" stroke="black" stroke-width="2"/>
</g>
</svg>
